<?xml version="1.0" standalone="no"?>
<!DOCTYPE svg PUBLIC "-//W3C//DTD SVG 20010904//EN"
 "http://www.w3.org/TR/2001/REC-SVG-20010904/DTD/svg10.dtd">
<svg version="1.0" xmlns="http://www.w3.org/2000/svg"
 width="260.000000pt" height="260.000000pt" viewBox="0 0 260.000000 260.000000"
 preserveAspectRatio="xMidYMid meet">
<metadata>
Created by potrace 1.11, written by Peter Selinger 2001-2013
</metadata>
<g transform="translate(0.000000,260.000000) scale(0.100000,-0.100000)"
fill="#000000" stroke="none">
<path d="M0 1300 l0 -1300 1300 0 1300 0 0 1300 0 1300 -1300 0 -1300 0 0
-1300z m1448 598 c67 -139 122 -265 122 -280 0 -26 -3 -28 -45 -28 l-44 0 130
-199 c102 -157 130 -206 127 -228 -3 -28 -3 -28 -91 -33 l-88 -5 161 -263
c162 -267 180 -308 148 -340 -9 -9 -74 -12 -230 -12 l-218 0 0 -160 0 -160
-120 0 -120 0 0 160 0 160 -213 0 c-152 0 -216 3 -225 12 -32 32 -14 73 148
340 l161 263 -88 5 -88 5 -3 30 c-2 24 24 70 126 225 l129 195 -49 3 c-45 3
-48 5 -48 30 0 15 55 141 122 280 112 231 125 252 148 252 23 0 36 -21 148
-252z"/>
</g>
</svg>
