<svg xmlns="http://www.w3.org/2000/svg" width="150" height="150" viewBox="0 0 400 400">
  <defs>
    <style>
      .cls-1 {
        font-size: 200px;
        fill: #fbf8f8;
        font-family: Brandish;
      }

      .cls-2 {
        fill: #f9f7f7;
        fill-rule: evenodd;
      }
    </style>
  </defs>
  <text id="R" class="cls-1" x="75" y="265">R</text>
  <text id="S" class="cls-1" transform="translate(198.133 224.362) rotate(27.046)">S</text>
  <path id="Vorm_1" data-name="Vorm 1" class="cls-2" d="M259.912,245.272l0.155,83.962s21.7-16.218,25.52-19.062c15.911,32.413,16.066,32.69,16.385,32.974l0.913,0.81,1.878-.437c13.534-3.312,13.6-3.984,13.669-4.831l0.028-.346s-15.3-28.372-17.482-32.423l36.118,2.426-77.192-67.3Zm4.2,4.222c6.315,5.507,57.534,50.162,63.189,55.1-7.391-.5-32.721-2.2-32.721-2.2l1.248,2.33c11.343,21.183,15.829,29.547,17.948,32.956l-8.937,2.51c-1.244-2.526-17.573-35.662-17.573-35.662l-23.022,17.193C264.229,315.271,264.123,256.707,264.11,249.494Z"/>
</svg>
